<mxfile host="Electron" agent="Mozilla/5.0 (Windows NT 10.0; Win64; x64) AppleWebKit/537.36 (KHTML, like Gecko) draw.io/24.7.17 Chrome/128.0.6613.36 Electron/32.0.1 Safari/537.36" version="24.7.17">
  <diagram name="Halaman-1" id="RhAHzfEslm-8_6d0kz8L">
    <mxGraphModel dx="975" dy="630" grid="1" gridSize="10" guides="1" tooltips="1" connect="1" arrows="1" fold="1" page="1" pageScale="1" pageWidth="827" pageHeight="1169" math="0" shadow="0">
      <root>
        <mxCell id="0" />
        <mxCell id="1" parent="0" />
        <mxCell id="JUs6LuxFgyAX4qPeMsuV-2" value="" style="endArrow=classic;html=1;rounded=0;exitX=0.5;exitY=1;exitDx=0;exitDy=0;" parent="1" edge="1">
          <mxGeometry width="50" height="50" relative="1" as="geometry">
            <mxPoint x="399.5" y="90" as="sourcePoint" />
            <mxPoint x="399.5" y="120" as="targetPoint" />
          </mxGeometry>
        </mxCell>
        <mxCell id="JUs6LuxFgyAX4qPeMsuV-4" value="Start" style="strokeWidth=2;html=1;shape=mxgraph.flowchart.terminator;whiteSpace=wrap;" parent="1" vertex="1">
          <mxGeometry x="350" y="30" width="100" height="60" as="geometry" />
        </mxCell>
        <mxCell id="JUs6LuxFgyAX4qPeMsuV-7" value="Menu Login Awal" style="rounded=1;whiteSpace=wrap;html=1;absoluteArcSize=1;arcSize=14;strokeWidth=2;" parent="1" vertex="1">
          <mxGeometry x="350" y="120" width="100" height="50" as="geometry" />
        </mxCell>
        <mxCell id="JUs6LuxFgyAX4qPeMsuV-10" style="edgeStyle=orthogonalEdgeStyle;rounded=0;orthogonalLoop=1;jettySize=auto;html=1;entryX=0.5;entryY=0;entryDx=0;entryDy=0;entryPerimeter=0;" parent="1" edge="1">
          <mxGeometry relative="1" as="geometry">
            <mxPoint x="400" y="170" as="sourcePoint" />
            <mxPoint x="400" y="190" as="targetPoint" />
            <Array as="points">
              <mxPoint x="400" y="190" />
            </Array>
          </mxGeometry>
        </mxCell>
        <mxCell id="JUs6LuxFgyAX4qPeMsuV-33" style="edgeStyle=orthogonalEdgeStyle;rounded=0;orthogonalLoop=1;jettySize=auto;html=1;exitX=0;exitY=0.5;exitDx=0;exitDy=0;exitPerimeter=0;entryX=1;entryY=0.5;entryDx=0;entryDy=0;" parent="1" source="JUs6LuxFgyAX4qPeMsuV-31" target="JUs6LuxFgyAX4qPeMsuV-32" edge="1">
          <mxGeometry relative="1" as="geometry" />
        </mxCell>
        <mxCell id="JUs6LuxFgyAX4qPeMsuV-31" value="Akun dibuat" style="strokeWidth=2;html=1;shape=mxgraph.flowchart.decision;whiteSpace=wrap;" parent="1" vertex="1">
          <mxGeometry x="350" y="190" width="100" height="100" as="geometry" />
        </mxCell>
        <mxCell id="JUs6LuxFgyAX4qPeMsuV-35" style="edgeStyle=orthogonalEdgeStyle;rounded=0;orthogonalLoop=1;jettySize=auto;html=1;entryX=0;entryY=0.5;entryDx=0;entryDy=0;" parent="1" edge="1">
          <mxGeometry relative="1" as="geometry">
            <mxPoint x="350" y="145" as="targetPoint" />
            <mxPoint x="240" y="210" as="sourcePoint" />
            <Array as="points">
              <mxPoint x="240" y="145" />
            </Array>
          </mxGeometry>
        </mxCell>
        <mxCell id="JUs6LuxFgyAX4qPeMsuV-32" value="Username/Password salah" style="shape=parallelogram;html=1;strokeWidth=2;perimeter=parallelogramPerimeter;whiteSpace=wrap;rounded=1;arcSize=12;size=0.23;" parent="1" vertex="1">
          <mxGeometry x="120" y="210" width="210" height="60" as="geometry" />
        </mxCell>
        <mxCell id="JUs6LuxFgyAX4qPeMsuV-34" style="edgeStyle=orthogonalEdgeStyle;rounded=0;orthogonalLoop=1;jettySize=auto;html=1;exitX=0;exitY=0.5;exitDx=0;exitDy=0;entryX=0;entryY=0.5;entryDx=0;entryDy=0;" parent="1" source="JUs6LuxFgyAX4qPeMsuV-7" target="JUs6LuxFgyAX4qPeMsuV-7" edge="1">
          <mxGeometry relative="1" as="geometry" />
        </mxCell>
        <mxCell id="JUs6LuxFgyAX4qPeMsuV-36" value="False" style="text;html=1;align=center;verticalAlign=middle;resizable=0;points=[];autosize=1;strokeColor=none;fillColor=none;" parent="1" vertex="1">
          <mxGeometry x="310" y="218" width="50" height="30" as="geometry" />
        </mxCell>
        <mxCell id="U2IZUbKnJ6Ty25HU_rPE-4" style="edgeStyle=orthogonalEdgeStyle;rounded=0;orthogonalLoop=1;jettySize=auto;html=1;exitX=1;exitY=0.5;exitDx=0;exitDy=0;exitPerimeter=0;" edge="1" parent="1" source="JUs6LuxFgyAX4qPeMsuV-37">
          <mxGeometry relative="1" as="geometry">
            <mxPoint x="680" y="370" as="targetPoint" />
          </mxGeometry>
        </mxCell>
        <mxCell id="JUs6LuxFgyAX4qPeMsuV-37" value="Akun(Admin)" style="strokeWidth=2;html=1;shape=mxgraph.flowchart.decision;whiteSpace=wrap;" parent="1" vertex="1">
          <mxGeometry x="350" y="320" width="100" height="100" as="geometry" />
        </mxCell>
        <mxCell id="JUs6LuxFgyAX4qPeMsuV-38" style="edgeStyle=orthogonalEdgeStyle;rounded=0;orthogonalLoop=1;jettySize=auto;html=1;exitX=0.5;exitY=1;exitDx=0;exitDy=0;exitPerimeter=0;entryX=0.5;entryY=0;entryDx=0;entryDy=0;entryPerimeter=0;" parent="1" source="JUs6LuxFgyAX4qPeMsuV-31" target="JUs6LuxFgyAX4qPeMsuV-37" edge="1">
          <mxGeometry relative="1" as="geometry" />
        </mxCell>
        <mxCell id="JUs6LuxFgyAX4qPeMsuV-42" style="edgeStyle=orthogonalEdgeStyle;rounded=0;orthogonalLoop=1;jettySize=auto;html=1;exitX=0.5;exitY=1;exitDx=0;exitDy=0;entryX=0.5;entryY=0;entryDx=0;entryDy=0;" parent="1" target="JUs6LuxFgyAX4qPeMsuV-41" edge="1">
          <mxGeometry relative="1" as="geometry">
            <mxPoint x="400" y="500" as="sourcePoint" />
          </mxGeometry>
        </mxCell>
        <mxCell id="JUs6LuxFgyAX4qPeMsuV-40" style="edgeStyle=orthogonalEdgeStyle;rounded=0;orthogonalLoop=1;jettySize=auto;html=1;exitX=0.5;exitY=1;exitDx=0;exitDy=0;exitPerimeter=0;" parent="1" source="JUs6LuxFgyAX4qPeMsuV-37" edge="1">
          <mxGeometry relative="1" as="geometry">
            <mxPoint x="400" y="442" as="targetPoint" />
            <Array as="points">
              <mxPoint x="400" y="442" />
            </Array>
          </mxGeometry>
        </mxCell>
        <mxCell id="JUs6LuxFgyAX4qPeMsuV-41" value="input opsi" style="shape=parallelogram;html=1;strokeWidth=2;perimeter=parallelogramPerimeter;whiteSpace=wrap;rounded=1;arcSize=12;size=0.23;" parent="1" vertex="1">
          <mxGeometry x="350" y="524.5" width="100" height="55.5" as="geometry" />
        </mxCell>
        <mxCell id="JUs6LuxFgyAX4qPeMsuV-45" style="edgeStyle=orthogonalEdgeStyle;rounded=0;orthogonalLoop=1;jettySize=auto;html=1;exitX=1;exitY=0.5;exitDx=0;exitDy=0;exitPerimeter=0;" parent="1" source="JUs6LuxFgyAX4qPeMsuV-43" edge="1">
          <mxGeometry relative="1" as="geometry">
            <mxPoint x="490" y="650" as="targetPoint" />
          </mxGeometry>
        </mxCell>
        <mxCell id="JUs6LuxFgyAX4qPeMsuV-48" style="edgeStyle=orthogonalEdgeStyle;rounded=0;orthogonalLoop=1;jettySize=auto;html=1;exitX=0.5;exitY=1;exitDx=0;exitDy=0;exitPerimeter=0;" parent="1" source="JUs6LuxFgyAX4qPeMsuV-43" edge="1">
          <mxGeometry relative="1" as="geometry">
            <mxPoint x="400" y="720" as="targetPoint" />
          </mxGeometry>
        </mxCell>
        <mxCell id="JUs6LuxFgyAX4qPeMsuV-43" value="IF pilihan == &quot;1&quot;" style="strokeWidth=2;html=1;shape=mxgraph.flowchart.decision;whiteSpace=wrap;" parent="1" vertex="1">
          <mxGeometry x="350" y="610" width="100" height="80" as="geometry" />
        </mxCell>
        <mxCell id="JUs6LuxFgyAX4qPeMsuV-44" style="edgeStyle=orthogonalEdgeStyle;rounded=0;orthogonalLoop=1;jettySize=auto;html=1;exitX=0.5;exitY=1;exitDx=0;exitDy=0;entryX=0.5;entryY=0;entryDx=0;entryDy=0;entryPerimeter=0;" parent="1" source="JUs6LuxFgyAX4qPeMsuV-41" target="JUs6LuxFgyAX4qPeMsuV-43" edge="1">
          <mxGeometry relative="1" as="geometry" />
        </mxCell>
        <mxCell id="JUs6LuxFgyAX4qPeMsuV-46" value="True" style="text;html=1;align=center;verticalAlign=middle;resizable=0;points=[];autosize=1;strokeColor=none;fillColor=none;" parent="1" vertex="1">
          <mxGeometry x="440" y="628" width="50" height="30" as="geometry" />
        </mxCell>
        <mxCell id="U2IZUbKnJ6Ty25HU_rPE-8" style="edgeStyle=orthogonalEdgeStyle;rounded=0;orthogonalLoop=1;jettySize=auto;html=1;exitX=1;exitY=0.5;exitDx=0;exitDy=0;entryX=1;entryY=0.5;entryDx=0;entryDy=0;" edge="1" parent="1" source="JUs6LuxFgyAX4qPeMsuV-47" target="U2IZUbKnJ6Ty25HU_rPE-1">
          <mxGeometry relative="1" as="geometry" />
        </mxCell>
        <mxCell id="JUs6LuxFgyAX4qPeMsuV-47" value="Tambah Jadwal Penerbangan" style="rounded=1;whiteSpace=wrap;html=1;absoluteArcSize=1;arcSize=14;strokeWidth=2;" parent="1" vertex="1">
          <mxGeometry x="490" y="620" width="100" height="60" as="geometry" />
        </mxCell>
        <mxCell id="JUs6LuxFgyAX4qPeMsuV-50" style="edgeStyle=orthogonalEdgeStyle;rounded=0;orthogonalLoop=1;jettySize=auto;html=1;exitX=1;exitY=0.5;exitDx=0;exitDy=0;exitPerimeter=0;" parent="1" source="JUs6LuxFgyAX4qPeMsuV-49" target="JUs6LuxFgyAX4qPeMsuV-51" edge="1">
          <mxGeometry relative="1" as="geometry">
            <mxPoint x="490" y="760" as="targetPoint" />
          </mxGeometry>
        </mxCell>
        <mxCell id="JUs6LuxFgyAX4qPeMsuV-49" value="IF pilihan == &quot;2&quot;" style="strokeWidth=2;html=1;shape=mxgraph.flowchart.decision;whiteSpace=wrap;" parent="1" vertex="1">
          <mxGeometry x="350" y="720" width="100" height="80" as="geometry" />
        </mxCell>
        <mxCell id="U2IZUbKnJ6Ty25HU_rPE-7" style="edgeStyle=orthogonalEdgeStyle;rounded=0;orthogonalLoop=1;jettySize=auto;html=1;exitX=1;exitY=0.5;exitDx=0;exitDy=0;entryX=1;entryY=0.5;entryDx=0;entryDy=0;" edge="1" parent="1" source="JUs6LuxFgyAX4qPeMsuV-51" target="U2IZUbKnJ6Ty25HU_rPE-1">
          <mxGeometry relative="1" as="geometry" />
        </mxCell>
        <mxCell id="JUs6LuxFgyAX4qPeMsuV-51" value="Lihat jadwal penerbangan" style="rounded=1;whiteSpace=wrap;html=1;absoluteArcSize=1;arcSize=14;strokeWidth=2;" parent="1" vertex="1">
          <mxGeometry x="490" y="735" width="100" height="50" as="geometry" />
        </mxCell>
        <mxCell id="JUs6LuxFgyAX4qPeMsuV-52" value="&lt;span style=&quot;color: rgb(0, 0, 0); font-family: Helvetica; font-size: 12px; font-style: normal; font-variant-ligatures: normal; font-variant-caps: normal; font-weight: 400; letter-spacing: normal; orphans: 2; text-align: center; text-indent: 0px; text-transform: none; widows: 2; word-spacing: 0px; -webkit-text-stroke-width: 0px; white-space: nowrap; background-color: rgb(251, 251, 251); text-decoration-thickness: initial; text-decoration-style: initial; text-decoration-color: initial; display: inline !important; float: none;&quot;&gt;True&lt;/span&gt;" style="text;whiteSpace=wrap;html=1;" parent="1" vertex="1">
          <mxGeometry x="450" y="740" width="60" height="40" as="geometry" />
        </mxCell>
        <mxCell id="JUs6LuxFgyAX4qPeMsuV-54" style="edgeStyle=orthogonalEdgeStyle;rounded=0;orthogonalLoop=1;jettySize=auto;html=1;exitX=1;exitY=0.5;exitDx=0;exitDy=0;exitPerimeter=0;" parent="1" source="JUs6LuxFgyAX4qPeMsuV-53" target="JUs6LuxFgyAX4qPeMsuV-55" edge="1">
          <mxGeometry relative="1" as="geometry">
            <mxPoint x="490" y="860" as="targetPoint" />
          </mxGeometry>
        </mxCell>
        <mxCell id="JUs6LuxFgyAX4qPeMsuV-58" value="" style="edgeStyle=orthogonalEdgeStyle;rounded=0;orthogonalLoop=1;jettySize=auto;html=1;" parent="1" source="JUs6LuxFgyAX4qPeMsuV-53" target="JUs6LuxFgyAX4qPeMsuV-57" edge="1">
          <mxGeometry relative="1" as="geometry" />
        </mxCell>
        <mxCell id="JUs6LuxFgyAX4qPeMsuV-53" value="IF pilihan == &quot;3&quot;" style="strokeWidth=2;html=1;shape=mxgraph.flowchart.decision;whiteSpace=wrap;" parent="1" vertex="1">
          <mxGeometry x="350" y="820" width="100" height="80" as="geometry" />
        </mxCell>
        <mxCell id="U2IZUbKnJ6Ty25HU_rPE-6" style="edgeStyle=orthogonalEdgeStyle;rounded=0;orthogonalLoop=1;jettySize=auto;html=1;exitX=1;exitY=0.5;exitDx=0;exitDy=0;entryX=1;entryY=0.5;entryDx=0;entryDy=0;" edge="1" parent="1" source="JUs6LuxFgyAX4qPeMsuV-55" target="U2IZUbKnJ6Ty25HU_rPE-1">
          <mxGeometry relative="1" as="geometry">
            <mxPoint x="450" y="470" as="targetPoint" />
            <Array as="points">
              <mxPoint x="610" y="860" />
              <mxPoint x="610" y="470" />
            </Array>
          </mxGeometry>
        </mxCell>
        <mxCell id="JUs6LuxFgyAX4qPeMsuV-55" value="Menghapus jadwal" style="rounded=1;whiteSpace=wrap;html=1;absoluteArcSize=1;arcSize=14;strokeWidth=2;" parent="1" vertex="1">
          <mxGeometry x="490" y="835" width="100" height="50" as="geometry" />
        </mxCell>
        <mxCell id="JUs6LuxFgyAX4qPeMsuV-56" style="edgeStyle=orthogonalEdgeStyle;rounded=0;orthogonalLoop=1;jettySize=auto;html=1;exitX=0.5;exitY=1;exitDx=0;exitDy=0;exitPerimeter=0;entryX=0.5;entryY=0;entryDx=0;entryDy=0;entryPerimeter=0;" parent="1" source="JUs6LuxFgyAX4qPeMsuV-49" target="JUs6LuxFgyAX4qPeMsuV-53" edge="1">
          <mxGeometry relative="1" as="geometry" />
        </mxCell>
        <mxCell id="JUs6LuxFgyAX4qPeMsuV-59" style="edgeStyle=orthogonalEdgeStyle;rounded=0;orthogonalLoop=1;jettySize=auto;html=1;exitX=1;exitY=0.5;exitDx=0;exitDy=0;exitPerimeter=0;" parent="1" source="JUs6LuxFgyAX4qPeMsuV-57" target="JUs6LuxFgyAX4qPeMsuV-60" edge="1">
          <mxGeometry relative="1" as="geometry">
            <mxPoint x="490" y="970" as="targetPoint" />
          </mxGeometry>
        </mxCell>
        <mxCell id="JUs6LuxFgyAX4qPeMsuV-127" style="edgeStyle=orthogonalEdgeStyle;rounded=0;orthogonalLoop=1;jettySize=auto;html=1;exitX=0;exitY=0.5;exitDx=0;exitDy=0;exitPerimeter=0;" parent="1" source="JUs6LuxFgyAX4qPeMsuV-57" edge="1">
          <mxGeometry relative="1" as="geometry">
            <Array as="points">
              <mxPoint x="270" y="970" />
              <mxPoint x="270" y="470" />
            </Array>
            <mxPoint x="342.25" y="470" as="targetPoint" />
          </mxGeometry>
        </mxCell>
        <mxCell id="JUs6LuxFgyAX4qPeMsuV-57" value="IF pilihan == &quot;4&quot;" style="strokeWidth=2;html=1;shape=mxgraph.flowchart.decision;whiteSpace=wrap;" parent="1" vertex="1">
          <mxGeometry x="350" y="930" width="100" height="80" as="geometry" />
        </mxCell>
        <mxCell id="JUs6LuxFgyAX4qPeMsuV-96" style="edgeStyle=orthogonalEdgeStyle;rounded=0;orthogonalLoop=1;jettySize=auto;html=1;exitX=0.5;exitY=1;exitDx=0;exitDy=0;entryX=0.5;entryY=0;entryDx=0;entryDy=0;entryPerimeter=0;" parent="1" source="JUs6LuxFgyAX4qPeMsuV-60" target="JUs6LuxFgyAX4qPeMsuV-93" edge="1">
          <mxGeometry relative="1" as="geometry">
            <mxPoint x="610" y="1180" as="targetPoint" />
            <Array as="points">
              <mxPoint x="540" y="1320" />
              <mxPoint x="610" y="1320" />
            </Array>
          </mxGeometry>
        </mxCell>
        <mxCell id="JUs6LuxFgyAX4qPeMsuV-60" value="Log out" style="rounded=1;whiteSpace=wrap;html=1;absoluteArcSize=1;arcSize=14;strokeWidth=2;" parent="1" vertex="1">
          <mxGeometry x="490" y="945" width="100" height="50" as="geometry" />
        </mxCell>
        <mxCell id="JUs6LuxFgyAX4qPeMsuV-61" value="&lt;span style=&quot;color: rgb(0, 0, 0); font-family: Helvetica; font-size: 12px; font-style: normal; font-variant-ligatures: normal; font-variant-caps: normal; font-weight: 400; letter-spacing: normal; orphans: 2; text-align: center; text-indent: 0px; text-transform: none; widows: 2; word-spacing: 0px; -webkit-text-stroke-width: 0px; white-space: nowrap; background-color: rgb(251, 251, 251); text-decoration-thickness: initial; text-decoration-style: initial; text-decoration-color: initial; display: inline !important; float: none;&quot;&gt;True&lt;/span&gt;" style="text;whiteSpace=wrap;html=1;" parent="1" vertex="1">
          <mxGeometry x="400" y="410" width="60" height="40" as="geometry" />
        </mxCell>
        <mxCell id="JUs6LuxFgyAX4qPeMsuV-64" style="edgeStyle=orthogonalEdgeStyle;rounded=0;orthogonalLoop=1;jettySize=auto;html=1;exitX=0.5;exitY=1;exitDx=0;exitDy=0;" parent="1" edge="1">
          <mxGeometry relative="1" as="geometry">
            <mxPoint x="720" y="440" as="targetPoint" />
            <mxPoint x="720" y="410" as="sourcePoint" />
          </mxGeometry>
        </mxCell>
        <mxCell id="JUs6LuxFgyAX4qPeMsuV-66" style="edgeStyle=orthogonalEdgeStyle;rounded=0;orthogonalLoop=1;jettySize=auto;html=1;exitX=0.5;exitY=1;exitDx=0;exitDy=0;" parent="1" edge="1">
          <mxGeometry relative="1" as="geometry">
            <mxPoint x="715" y="530" as="targetPoint" />
            <mxPoint x="715" y="500" as="sourcePoint" />
          </mxGeometry>
        </mxCell>
        <mxCell id="JUs6LuxFgyAX4qPeMsuV-67" value="input opsi" style="shape=parallelogram;html=1;strokeWidth=2;perimeter=parallelogramPerimeter;whiteSpace=wrap;rounded=1;arcSize=12;size=0.23;" parent="1" vertex="1">
          <mxGeometry x="660" y="529" width="100" height="55.5" as="geometry" />
        </mxCell>
        <mxCell id="JUs6LuxFgyAX4qPeMsuV-103" style="edgeStyle=orthogonalEdgeStyle;rounded=0;orthogonalLoop=1;jettySize=auto;html=1;exitX=1;exitY=0.5;exitDx=0;exitDy=0;exitPerimeter=0;entryX=0;entryY=0.5;entryDx=0;entryDy=0;" parent="1" source="JUs6LuxFgyAX4qPeMsuV-68" target="JUs6LuxFgyAX4qPeMsuV-70" edge="1">
          <mxGeometry relative="1" as="geometry" />
        </mxCell>
        <mxCell id="JUs6LuxFgyAX4qPeMsuV-68" value="IF pilihan == &quot;1&quot;" style="strokeWidth=2;html=1;shape=mxgraph.flowchart.decision;whiteSpace=wrap;" parent="1" vertex="1">
          <mxGeometry x="660" y="610" width="100" height="80" as="geometry" />
        </mxCell>
        <mxCell id="JUs6LuxFgyAX4qPeMsuV-69" style="edgeStyle=orthogonalEdgeStyle;rounded=0;orthogonalLoop=1;jettySize=auto;html=1;exitX=0.5;exitY=1;exitDx=0;exitDy=0;entryX=0.5;entryY=0;entryDx=0;entryDy=0;entryPerimeter=0;" parent="1" source="JUs6LuxFgyAX4qPeMsuV-67" target="JUs6LuxFgyAX4qPeMsuV-68" edge="1">
          <mxGeometry relative="1" as="geometry" />
        </mxCell>
        <mxCell id="U2IZUbKnJ6Ty25HU_rPE-12" style="edgeStyle=orthogonalEdgeStyle;rounded=0;orthogonalLoop=1;jettySize=auto;html=1;exitX=1;exitY=0.5;exitDx=0;exitDy=0;entryX=1;entryY=0.5;entryDx=0;entryDy=0;" edge="1" parent="1" source="JUs6LuxFgyAX4qPeMsuV-70" target="U2IZUbKnJ6Ty25HU_rPE-2">
          <mxGeometry relative="1" as="geometry" />
        </mxCell>
        <mxCell id="JUs6LuxFgyAX4qPeMsuV-70" value="Beli Tiket Pesawat" style="rounded=1;whiteSpace=wrap;html=1;absoluteArcSize=1;arcSize=14;strokeWidth=2;" parent="1" vertex="1">
          <mxGeometry x="790" y="622.5" width="100" height="55" as="geometry" />
        </mxCell>
        <mxCell id="JUs6LuxFgyAX4qPeMsuV-75" style="edgeStyle=orthogonalEdgeStyle;rounded=0;orthogonalLoop=1;jettySize=auto;html=1;exitX=1;exitY=0.5;exitDx=0;exitDy=0;exitPerimeter=0;entryX=0;entryY=0.5;entryDx=0;entryDy=0;" parent="1" source="JUs6LuxFgyAX4qPeMsuV-72" target="JUs6LuxFgyAX4qPeMsuV-74" edge="1">
          <mxGeometry relative="1" as="geometry" />
        </mxCell>
        <mxCell id="JUs6LuxFgyAX4qPeMsuV-72" value="IF pilihan == &quot;2&quot;" style="strokeWidth=2;html=1;shape=mxgraph.flowchart.decision;whiteSpace=wrap;" parent="1" vertex="1">
          <mxGeometry x="660" y="720" width="100" height="80" as="geometry" />
        </mxCell>
        <mxCell id="JUs6LuxFgyAX4qPeMsuV-73" style="edgeStyle=orthogonalEdgeStyle;rounded=0;orthogonalLoop=1;jettySize=auto;html=1;exitX=0.5;exitY=1;exitDx=0;exitDy=0;exitPerimeter=0;entryX=0.5;entryY=0;entryDx=0;entryDy=0;entryPerimeter=0;" parent="1" source="JUs6LuxFgyAX4qPeMsuV-68" target="JUs6LuxFgyAX4qPeMsuV-72" edge="1">
          <mxGeometry relative="1" as="geometry" />
        </mxCell>
        <mxCell id="U2IZUbKnJ6Ty25HU_rPE-11" style="edgeStyle=orthogonalEdgeStyle;rounded=0;orthogonalLoop=1;jettySize=auto;html=1;exitX=1;exitY=0.5;exitDx=0;exitDy=0;entryX=1;entryY=0.5;entryDx=0;entryDy=0;" edge="1" parent="1" source="JUs6LuxFgyAX4qPeMsuV-74" target="U2IZUbKnJ6Ty25HU_rPE-2">
          <mxGeometry relative="1" as="geometry" />
        </mxCell>
        <mxCell id="JUs6LuxFgyAX4qPeMsuV-74" value="Lihat tiket yang telah dipesan" style="rounded=1;whiteSpace=wrap;html=1;absoluteArcSize=1;arcSize=14;strokeWidth=2;" parent="1" vertex="1">
          <mxGeometry x="790" y="730" width="100" height="60" as="geometry" />
        </mxCell>
        <mxCell id="JUs6LuxFgyAX4qPeMsuV-79" style="edgeStyle=orthogonalEdgeStyle;rounded=0;orthogonalLoop=1;jettySize=auto;html=1;exitX=1;exitY=0.5;exitDx=0;exitDy=0;exitPerimeter=0;entryX=0;entryY=0.5;entryDx=0;entryDy=0;" parent="1" source="JUs6LuxFgyAX4qPeMsuV-76" target="JUs6LuxFgyAX4qPeMsuV-78" edge="1">
          <mxGeometry relative="1" as="geometry" />
        </mxCell>
        <mxCell id="JUs6LuxFgyAX4qPeMsuV-76" value="IF pilihan == &quot;3&quot;" style="strokeWidth=2;html=1;shape=mxgraph.flowchart.decision;whiteSpace=wrap;" parent="1" vertex="1">
          <mxGeometry x="660" y="830" width="100" height="80" as="geometry" />
        </mxCell>
        <mxCell id="JUs6LuxFgyAX4qPeMsuV-77" style="edgeStyle=orthogonalEdgeStyle;rounded=0;orthogonalLoop=1;jettySize=auto;html=1;exitX=0.5;exitY=1;exitDx=0;exitDy=0;exitPerimeter=0;entryX=0.5;entryY=0;entryDx=0;entryDy=0;entryPerimeter=0;" parent="1" source="JUs6LuxFgyAX4qPeMsuV-72" target="JUs6LuxFgyAX4qPeMsuV-76" edge="1">
          <mxGeometry relative="1" as="geometry" />
        </mxCell>
        <mxCell id="U2IZUbKnJ6Ty25HU_rPE-10" style="edgeStyle=orthogonalEdgeStyle;rounded=0;orthogonalLoop=1;jettySize=auto;html=1;exitX=1;exitY=0.5;exitDx=0;exitDy=0;entryX=1;entryY=0.5;entryDx=0;entryDy=0;" edge="1" parent="1" source="JUs6LuxFgyAX4qPeMsuV-78" target="U2IZUbKnJ6Ty25HU_rPE-2">
          <mxGeometry relative="1" as="geometry" />
        </mxCell>
        <mxCell id="JUs6LuxFgyAX4qPeMsuV-78" value="Cancel Penerbangan" style="rounded=1;whiteSpace=wrap;html=1;absoluteArcSize=1;arcSize=14;strokeWidth=2;" parent="1" vertex="1">
          <mxGeometry x="790" y="840" width="100" height="60" as="geometry" />
        </mxCell>
        <mxCell id="JUs6LuxFgyAX4qPeMsuV-83" style="edgeStyle=orthogonalEdgeStyle;rounded=0;orthogonalLoop=1;jettySize=auto;html=1;exitX=1;exitY=0.5;exitDx=0;exitDy=0;exitPerimeter=0;entryX=0;entryY=0.5;entryDx=0;entryDy=0;" parent="1" source="JUs6LuxFgyAX4qPeMsuV-80" target="JUs6LuxFgyAX4qPeMsuV-82" edge="1">
          <mxGeometry relative="1" as="geometry" />
        </mxCell>
        <mxCell id="JUs6LuxFgyAX4qPeMsuV-128" style="edgeStyle=orthogonalEdgeStyle;rounded=0;orthogonalLoop=1;jettySize=auto;html=1;exitX=1.077;exitY=0.53;exitDx=0;exitDy=0;exitPerimeter=0;" parent="1" source="JUs6LuxFgyAX4qPeMsuV-129" edge="1">
          <mxGeometry relative="1" as="geometry">
            <Array as="points">
              <mxPoint x="620" y="1081" />
              <mxPoint x="620" y="470" />
            </Array>
            <mxPoint x="657.25" y="470" as="targetPoint" />
          </mxGeometry>
        </mxCell>
        <mxCell id="JUs6LuxFgyAX4qPeMsuV-80" value="IF pilihan == &quot;4&quot;" style="strokeWidth=2;html=1;shape=mxgraph.flowchart.decision;whiteSpace=wrap;" parent="1" vertex="1">
          <mxGeometry x="660" y="940" width="100" height="80" as="geometry" />
        </mxCell>
        <mxCell id="JUs6LuxFgyAX4qPeMsuV-81" style="edgeStyle=orthogonalEdgeStyle;rounded=0;orthogonalLoop=1;jettySize=auto;html=1;exitX=0.5;exitY=1;exitDx=0;exitDy=0;exitPerimeter=0;entryX=0.5;entryY=0;entryDx=0;entryDy=0;entryPerimeter=0;" parent="1" source="JUs6LuxFgyAX4qPeMsuV-76" target="JUs6LuxFgyAX4qPeMsuV-80" edge="1">
          <mxGeometry relative="1" as="geometry" />
        </mxCell>
        <mxCell id="U2IZUbKnJ6Ty25HU_rPE-9" style="edgeStyle=orthogonalEdgeStyle;rounded=0;orthogonalLoop=1;jettySize=auto;html=1;exitX=1;exitY=0.5;exitDx=0;exitDy=0;entryX=1;entryY=0.5;entryDx=0;entryDy=0;" edge="1" parent="1" source="JUs6LuxFgyAX4qPeMsuV-82" target="U2IZUbKnJ6Ty25HU_rPE-2">
          <mxGeometry relative="1" as="geometry" />
        </mxCell>
        <mxCell id="JUs6LuxFgyAX4qPeMsuV-82" value="Lihat jadwal yang ada" style="rounded=1;whiteSpace=wrap;html=1;absoluteArcSize=1;arcSize=14;strokeWidth=2;" parent="1" vertex="1">
          <mxGeometry x="790" y="950" width="100" height="60" as="geometry" />
        </mxCell>
        <mxCell id="JUs6LuxFgyAX4qPeMsuV-92" style="edgeStyle=orthogonalEdgeStyle;rounded=0;orthogonalLoop=1;jettySize=auto;html=1;exitX=1;exitY=0.5;exitDx=0;exitDy=0;exitPerimeter=0;entryX=0;entryY=0.5;entryDx=0;entryDy=0;" parent="1" source="JUs6LuxFgyAX4qPeMsuV-84" target="JUs6LuxFgyAX4qPeMsuV-86" edge="1">
          <mxGeometry relative="1" as="geometry" />
        </mxCell>
        <mxCell id="JUs6LuxFgyAX4qPeMsuV-84" value="IF pilihan == &quot;5&quot;" style="strokeWidth=2;html=1;shape=mxgraph.flowchart.decision;whiteSpace=wrap;" parent="1" vertex="1">
          <mxGeometry x="660" y="1040" width="100" height="80" as="geometry" />
        </mxCell>
        <mxCell id="JUs6LuxFgyAX4qPeMsuV-85" style="edgeStyle=orthogonalEdgeStyle;rounded=0;orthogonalLoop=1;jettySize=auto;html=1;exitX=0.5;exitY=1;exitDx=0;exitDy=0;exitPerimeter=0;entryX=0.5;entryY=0;entryDx=0;entryDy=0;entryPerimeter=0;" parent="1" source="JUs6LuxFgyAX4qPeMsuV-80" target="JUs6LuxFgyAX4qPeMsuV-84" edge="1">
          <mxGeometry relative="1" as="geometry" />
        </mxCell>
        <mxCell id="JUs6LuxFgyAX4qPeMsuV-94" style="edgeStyle=orthogonalEdgeStyle;rounded=0;orthogonalLoop=1;jettySize=auto;html=1;exitX=0.5;exitY=1;exitDx=0;exitDy=0;entryX=0.5;entryY=0;entryDx=0;entryDy=0;entryPerimeter=0;" parent="1" source="JUs6LuxFgyAX4qPeMsuV-86" target="JUs6LuxFgyAX4qPeMsuV-93" edge="1">
          <mxGeometry relative="1" as="geometry">
            <mxPoint x="610" y="1180" as="targetPoint" />
            <Array as="points">
              <mxPoint x="840" y="1320" />
              <mxPoint x="610" y="1320" />
            </Array>
          </mxGeometry>
        </mxCell>
        <mxCell id="JUs6LuxFgyAX4qPeMsuV-86" value="Log out" style="rounded=1;whiteSpace=wrap;html=1;absoluteArcSize=1;arcSize=14;strokeWidth=2;" parent="1" vertex="1">
          <mxGeometry x="790" y="1055" width="100" height="50" as="geometry" />
        </mxCell>
        <mxCell id="JUs6LuxFgyAX4qPeMsuV-93" value="End" style="strokeWidth=2;html=1;shape=mxgraph.flowchart.start_1;whiteSpace=wrap;" parent="1" vertex="1">
          <mxGeometry x="560" y="1430" width="100" height="60" as="geometry" />
        </mxCell>
        <mxCell id="JUs6LuxFgyAX4qPeMsuV-97" value="&lt;span style=&quot;color: rgb(0, 0, 0); font-family: Helvetica; font-size: 12px; font-style: normal; font-variant-ligatures: normal; font-variant-caps: normal; font-weight: 400; letter-spacing: normal; orphans: 2; text-align: center; text-indent: 0px; text-transform: none; widows: 2; word-spacing: 0px; -webkit-text-stroke-width: 0px; white-space: nowrap; background-color: rgb(251, 251, 251); text-decoration-thickness: initial; text-decoration-style: initial; text-decoration-color: initial; display: inline !important; float: none;&quot;&gt;True&lt;/span&gt;" style="text;whiteSpace=wrap;html=1;" parent="1" vertex="1">
          <mxGeometry x="450" y="835" width="60" height="40" as="geometry" />
        </mxCell>
        <mxCell id="JUs6LuxFgyAX4qPeMsuV-98" value="&lt;span style=&quot;color: rgb(0, 0, 0); font-family: Helvetica; font-size: 12px; font-style: normal; font-variant-ligatures: normal; font-variant-caps: normal; font-weight: 400; letter-spacing: normal; orphans: 2; text-align: center; text-indent: 0px; text-transform: none; widows: 2; word-spacing: 0px; -webkit-text-stroke-width: 0px; white-space: nowrap; background-color: rgb(251, 251, 251); text-decoration-thickness: initial; text-decoration-style: initial; text-decoration-color: initial; display: inline !important; float: none;&quot;&gt;True&lt;/span&gt;" style="text;whiteSpace=wrap;html=1;" parent="1" vertex="1">
          <mxGeometry x="450" y="945" width="60" height="40" as="geometry" />
        </mxCell>
        <mxCell id="JUs6LuxFgyAX4qPeMsuV-101" style="edgeStyle=orthogonalEdgeStyle;rounded=0;orthogonalLoop=1;jettySize=auto;html=1;exitX=0.5;exitY=1;exitDx=0;exitDy=0;" parent="1" edge="1">
          <mxGeometry relative="1" as="geometry">
            <mxPoint x="780" y="668" as="sourcePoint" />
            <mxPoint x="780" y="668" as="targetPoint" />
          </mxGeometry>
        </mxCell>
        <mxCell id="JUs6LuxFgyAX4qPeMsuV-102" style="edgeStyle=orthogonalEdgeStyle;rounded=0;orthogonalLoop=1;jettySize=auto;html=1;exitX=0.5;exitY=1;exitDx=0;exitDy=0;" parent="1" edge="1">
          <mxGeometry relative="1" as="geometry">
            <mxPoint x="780" y="668" as="sourcePoint" />
            <mxPoint x="780" y="668" as="targetPoint" />
          </mxGeometry>
        </mxCell>
        <mxCell id="JUs6LuxFgyAX4qPeMsuV-104" value="&lt;span style=&quot;color: rgb(0, 0, 0); font-family: Helvetica; font-size: 12px; font-style: normal; font-variant-ligatures: normal; font-variant-caps: normal; font-weight: 400; letter-spacing: normal; orphans: 2; text-align: center; text-indent: 0px; text-transform: none; widows: 2; word-spacing: 0px; -webkit-text-stroke-width: 0px; white-space: nowrap; background-color: rgb(251, 251, 251); text-decoration-thickness: initial; text-decoration-style: initial; text-decoration-color: initial; display: inline !important; float: none;&quot;&gt;True&lt;/span&gt;" style="text;whiteSpace=wrap;html=1;" parent="1" vertex="1">
          <mxGeometry x="760" y="623" width="60" height="40" as="geometry" />
        </mxCell>
        <mxCell id="JUs6LuxFgyAX4qPeMsuV-105" value="&lt;span style=&quot;color: rgb(0, 0, 0); font-family: Helvetica; font-size: 12px; font-style: normal; font-variant-ligatures: normal; font-variant-caps: normal; font-weight: 400; letter-spacing: normal; orphans: 2; text-align: center; text-indent: 0px; text-transform: none; widows: 2; word-spacing: 0px; -webkit-text-stroke-width: 0px; white-space: nowrap; background-color: rgb(251, 251, 251); text-decoration-thickness: initial; text-decoration-style: initial; text-decoration-color: initial; display: inline !important; float: none;&quot;&gt;True&lt;/span&gt;" style="text;whiteSpace=wrap;html=1;" parent="1" vertex="1">
          <mxGeometry x="750" y="735" width="60" height="40" as="geometry" />
        </mxCell>
        <mxCell id="JUs6LuxFgyAX4qPeMsuV-106" value="&lt;span style=&quot;color: rgb(0, 0, 0); font-family: Helvetica; font-size: 12px; font-style: normal; font-variant-ligatures: normal; font-variant-caps: normal; font-weight: 400; letter-spacing: normal; orphans: 2; text-align: center; text-indent: 0px; text-transform: none; widows: 2; word-spacing: 0px; -webkit-text-stroke-width: 0px; white-space: nowrap; background-color: rgb(251, 251, 251); text-decoration-thickness: initial; text-decoration-style: initial; text-decoration-color: initial; display: inline !important; float: none;&quot;&gt;True&lt;/span&gt;" style="text;whiteSpace=wrap;html=1;" parent="1" vertex="1">
          <mxGeometry x="750" y="840" width="60" height="40" as="geometry" />
        </mxCell>
        <mxCell id="JUs6LuxFgyAX4qPeMsuV-107" value="&lt;span style=&quot;color: rgb(0, 0, 0); font-family: Helvetica; font-size: 12px; font-style: normal; font-variant-ligatures: normal; font-variant-caps: normal; font-weight: 400; letter-spacing: normal; orphans: 2; text-align: center; text-indent: 0px; text-transform: none; widows: 2; word-spacing: 0px; -webkit-text-stroke-width: 0px; white-space: nowrap; background-color: rgb(251, 251, 251); text-decoration-thickness: initial; text-decoration-style: initial; text-decoration-color: initial; display: inline !important; float: none;&quot;&gt;True&lt;/span&gt;" style="text;whiteSpace=wrap;html=1;" parent="1" vertex="1">
          <mxGeometry x="750" y="950" width="60" height="40" as="geometry" />
        </mxCell>
        <mxCell id="JUs6LuxFgyAX4qPeMsuV-112" value="False" style="text;html=1;align=center;verticalAlign=middle;resizable=0;points=[];autosize=1;strokeColor=none;fillColor=none;" parent="1" vertex="1">
          <mxGeometry x="360" y="680" width="50" height="30" as="geometry" />
        </mxCell>
        <mxCell id="JUs6LuxFgyAX4qPeMsuV-113" value="False" style="text;html=1;align=center;verticalAlign=middle;resizable=0;points=[];autosize=1;strokeColor=none;fillColor=none;" parent="1" vertex="1">
          <mxGeometry x="350" y="790" width="50" height="30" as="geometry" />
        </mxCell>
        <mxCell id="JUs6LuxFgyAX4qPeMsuV-114" value="False" style="text;html=1;align=center;verticalAlign=middle;resizable=0;points=[];autosize=1;strokeColor=none;fillColor=none;" parent="1" vertex="1">
          <mxGeometry x="350" y="900" width="50" height="30" as="geometry" />
        </mxCell>
        <mxCell id="JUs6LuxFgyAX4qPeMsuV-115" value="False" style="text;html=1;align=center;verticalAlign=middle;resizable=0;points=[];autosize=1;strokeColor=none;fillColor=none;" parent="1" vertex="1">
          <mxGeometry x="670" y="690" width="50" height="30" as="geometry" />
        </mxCell>
        <mxCell id="JUs6LuxFgyAX4qPeMsuV-116" value="False" style="text;html=1;align=center;verticalAlign=middle;resizable=0;points=[];autosize=1;strokeColor=none;fillColor=none;" parent="1" vertex="1">
          <mxGeometry x="660" y="800" width="50" height="30" as="geometry" />
        </mxCell>
        <mxCell id="JUs6LuxFgyAX4qPeMsuV-117" value="False" style="text;html=1;align=center;verticalAlign=middle;resizable=0;points=[];autosize=1;strokeColor=none;fillColor=none;" parent="1" vertex="1">
          <mxGeometry x="660" y="910" width="50" height="30" as="geometry" />
        </mxCell>
        <mxCell id="JUs6LuxFgyAX4qPeMsuV-118" value="False" style="text;html=1;align=center;verticalAlign=middle;resizable=0;points=[];autosize=1;strokeColor=none;fillColor=none;" parent="1" vertex="1">
          <mxGeometry x="670" y="1020" width="50" height="30" as="geometry" />
        </mxCell>
        <mxCell id="JUs6LuxFgyAX4qPeMsuV-129" value="False" style="text;html=1;align=center;verticalAlign=middle;resizable=0;points=[];autosize=1;strokeColor=none;fillColor=none;" parent="1" vertex="1">
          <mxGeometry x="620" y="1055" width="50" height="30" as="geometry" />
        </mxCell>
        <mxCell id="JUs6LuxFgyAX4qPeMsuV-130" value="False" style="text;html=1;align=center;verticalAlign=middle;resizable=0;points=[];autosize=1;strokeColor=none;fillColor=none;" parent="1" vertex="1">
          <mxGeometry x="275" y="940" width="50" height="30" as="geometry" />
        </mxCell>
        <mxCell id="JUs6LuxFgyAX4qPeMsuV-131" value="&lt;span style=&quot;color: rgb(0, 0, 0); font-family: Helvetica; font-size: 12px; font-style: normal; font-variant-ligatures: normal; font-variant-caps: normal; font-weight: 400; letter-spacing: normal; orphans: 2; text-align: center; text-indent: 0px; text-transform: none; widows: 2; word-spacing: 0px; -webkit-text-stroke-width: 0px; white-space: nowrap; background-color: rgb(251, 251, 251); text-decoration-thickness: initial; text-decoration-style: initial; text-decoration-color: initial; display: inline !important; float: none;&quot;&gt;True&lt;/span&gt;" style="text;whiteSpace=wrap;html=1;" parent="1" vertex="1">
          <mxGeometry x="400" y="290" width="60" height="40" as="geometry" />
        </mxCell>
        <mxCell id="JUs6LuxFgyAX4qPeMsuV-132" value="False" style="text;html=1;align=center;verticalAlign=middle;resizable=0;points=[];autosize=1;strokeColor=none;fillColor=none;" parent="1" vertex="1">
          <mxGeometry x="540" y="340" width="50" height="30" as="geometry" />
        </mxCell>
        <mxCell id="U2IZUbKnJ6Ty25HU_rPE-1" value="Menu Login(Admin)" style="rounded=1;whiteSpace=wrap;html=1;absoluteArcSize=1;arcSize=14;strokeWidth=2;" vertex="1" parent="1">
          <mxGeometry x="340" y="440" width="100" height="60" as="geometry" />
        </mxCell>
        <mxCell id="U2IZUbKnJ6Ty25HU_rPE-2" value="Menu Login(User)" style="rounded=1;whiteSpace=wrap;html=1;absoluteArcSize=1;arcSize=14;strokeWidth=2;" vertex="1" parent="1">
          <mxGeometry x="660" y="440" width="100" height="70" as="geometry" />
        </mxCell>
        <mxCell id="U2IZUbKnJ6Ty25HU_rPE-3" value="Akun(User)" style="rounded=1;whiteSpace=wrap;html=1;absoluteArcSize=1;arcSize=14;strokeWidth=2;" vertex="1" parent="1">
          <mxGeometry x="680" y="350" width="100" height="60" as="geometry" />
        </mxCell>
      </root>
    </mxGraphModel>
  </diagram>
</mxfile>
